/* XPM */
static char *_011c2d6520b4c71c8892d54aa34673dyrif5F0YRRGfOG9j[] = {
/* columns rows colors chars-per-pixel */
"50 50 45 1 ",
"  c None",
". c #412F59",
"X c #41305A",
"o c #43315A",
"O c #493B5E",
"+ c #483A5F",
"@ c #483B5F",
"# c #473A61",
"$ c #463A62",
"% c #463B62",
"& c #473B63",
"* c #493B60",
"= c #493A61",
"- c #4A3B60",
"; c #493A62",
": c #483B62",
"> c #493B62",
", c #483A63",
"< c #493B63",
"1 c #4A3B62",
"2 c #4A3B63",
"3 c #4A3C60",
"4 c #483C62",
"5 c #493C63",
"6 c #493B64",
"7 c #4A3B64",
"8 c #4A3B65",
"9 c #493C64",
"0 c #52406D",
"q c #56426E",
"w c #544270",
"e c #8F8FCA",
"r c #9594D7",
"t c #9897DF",
"y c #ABA8DB",
"u c #9C9BE8",
"i c #9C9BE9",
"p c #C3BEF4",
"a c #DED7FE",
"s c #DFD7FE",
"d c #DED8FC",
"f c #DED8FD",
"g c #DED8FE",
"h c #DFD8FE",
"j c #E0DAFC",
/* pixels */
"                                                  ",
"                                                  ",
"                                                  ",
"                                                  ",
"                                                  ",
"                                                  ",
"                                                  ",
"                                                  ",
"                                                  ",
"                                                  ",
"                                                  ",
"                                                  ",
"                                1                 ",
"                222222221111111117                ",
"                O2O272##11O@@1O1O7                ",
"              11                  11              ",
"              22    gg  ii        11              ",
"            22            gg     g  11            ",
"            22            gg     g  11            ",
"          42              iu          2@          ",
"          22      iiiiiiiiii          24          ",
"          22            rrpp    yy    22          ",
"          2O            eegg          12          ",
"          42            eegg          42          ",
"            22  gg      iigggg      22            ",
"            #2  dg      iigggg      22            ",
"              22        iigg  gg  22              ",
"              22        iigg  gg  22              ",
"                22        gg    1#                ",
"                22        gg    17                ",
"                  00  gjtt    qw                  ",
"                  22  ggii    27                  ",
"                  oo    ii    .o                  ",
"                    22  ii  11                    ",
"                    27  ii  77                    ",
"                      1Oii22                      ",
"                      O2ii11                      ",
"                        11                        ",
"                        11                        ",
"                                                  ",
"                                                  ",
"                                                  ",
"                                                  ",
"                                                  ",
"                                                  ",
"                                                  ",
"                                                  ",
"                                                  ",
"                                                  ",
"                                                  "
};
