/* XPM */
static char *_438607cf89443f4e8072027b9e82372h8ljY0su3KgenW3r[] = {
/* columns rows colors chars-per-pixel */
"50 50 195 2 ",
"   c None",
".  c gray19",
"X  c #4B3B2B",
"o  c #4F3D29",
"O  c #4C3C2D",
"+  c #533F2B",
"@  c #6D4C1D",
"#  c #7A5312",
"$  c #74501D",
"%  c #7E571F",
"&  c #5D4325",
"*  c #5E4424",
"=  c #56412B",
"-  c #584229",
";  c #5B4329",
":  c #58422B",
">  c #674A27",
",  c #694B26",
"<  c #6A4C26",
"1  c #624728",
"2  c #644828",
"3  c #715024",
"4  c #7B5521",
"5  c #7E5720",
"6  c #63503F",
"7  c #69533D",
"8  c gray27",
"9  c gray31",
"0  c #554B42",
"q  c #5C4E40",
"w  c #514F4E",
"e  c #5F5145",
"r  c #5D5147",
"t  c #53504D",
"y  c #5A5149",
"u  c #505050",
"i  c #515151",
"p  c gray32",
"a  c #535353",
"s  c gray33",
"d  c #555555",
"f  c #565656",
"g  c gray34",
"h  c #585858",
"j  c gray35",
"k  c #5A5A5A",
"l  c gray36",
"z  c #5D5D5D",
"x  c gray37",
"c  c #645241",
"v  c #695A4D",
"b  c #695E55",
"n  c #6A625C",
"m  c #606060",
"M  c gray39",
"N  c #656565",
"B  c gray40",
"V  c #676767",
"C  c #686868",
"Z  c DimGray",
"A  c #6A6A6A",
"S  c #6C6C6C",
"D  c gray44",
"F  c #717171",
"G  c #747474",
"H  c gray46",
"J  c #767676",
"K  c #777777",
"L  c #7F7974",
"P  c gray47",
"I  c gray48",
"U  c #7B7B7B",
"Y  c #7C7C7C",
"T  c gray49",
"R  c #7E7E7E",
"E  c gray50",
"W  c #855901",
"Q  c #885B01",
"!  c #895B01",
"~  c #895C01",
"^  c #8A5C01",
"/  c #8A5D01",
"(  c #8B5D01",
")  c #8C5D01",
"_  c #8D5E01",
"`  c #835916",
"'  c #8B5E12",
"]  c #8B5E14",
"[  c #875C1A",
"{  c #825A1D",
"}  c #845A1D",
"|  c #845B1D",
" . c #865B1C",
".. c #845B1E",
"X. c #8B5F19",
"o. c #895D1A",
"O. c #8F600D",
"+. c #8F600E",
"@. c #926201",
"#. c #986601",
"$. c #9B6701",
"%. c #9E6901",
"&. c #9E6A01",
"*. c #9F6A01",
"=. c #9F6B04",
"-. c #9E6A06",
";. c #9D6909",
":. c #9D6A09",
">. c #9B680C",
",. c #9A680D",
"<. c #8F6116",
"1. c #8F6117",
"2. c #916212",
"3. c #976610",
"4. c #956412",
"5. c #986610",
"6. c #A16B01",
"7. c #A06B03",
"8. c #A16C01",
"9. c #A36D01",
"0. c #A06B05",
"q. c #808080",
"w. c #818181",
"e. c gray51",
"r. c #838383",
"t. c #848484",
"y. c gray52",
"u. c #868686",
"i. c gray53",
"p. c #888888",
"a. c gray54",
"s. c #8B8B8B",
"d. c gray55",
"f. c #8D8D8D",
"g. c #8E8E8E",
"h. c gray56",
"j. c #909090",
"k. c gray57",
"l. c #929292",
"z. c #939393",
"x. c gray58",
"c. c #959595",
"v. c gray59",
"b. c #979797",
"n. c #989898",
"m. c gray60",
"M. c #9A9A9A",
"N. c #9B9B9B",
"B. c gray61",
"V. c #9D9D9D",
"C. c gray62",
"Z. c #9F9F9F",
"A. c gray63",
"S. c #A2A2A2",
"D. c gray64",
"F. c #A4A4A4",
"G. c #A5A5A5",
"H. c gray65",
"J. c #A7A7A7",
"K. c gray66",
"L. c #A9A9A9",
"P. c #AAAAAA",
"I. c gray67",
"U. c #ACACAC",
"Y. c #AEAEAE",
"T. c #AFAFAF",
"R. c gray69",
"E. c #B2B2B2",
"W. c gray70",
"Q. c #B4B4B4",
"!. c gray71",
"~. c #B6B6B6",
"^. c #B7B7B7",
"/. c gray72",
"(. c gray73",
"). c #BBBBBB",
"_. c gray",
"`. c gray75",
"'. c #C0C0C0",
"]. c #C1C1C1",
"[. c gray76",
"{. c #C3C3C3",
"}. c gray77",
"|. c #C5C5C5",
" X c #C8C8C8",
".X c gray79",
"XX c #CACACA",
"oX c #CBCBCB",
"OX c #CECECE",
"+X c #D2D2D2",
"@X c LightGray",
"#X c gray83",
"$X c gray85",
"%X c gainsboro",
"&X c gray87",
/* pixels */
"                                    9 9 9 9 9 9 9 9 u 9 9 9 9 9                                     ",
"                              f j x C.k.9 m.H.H.H.H.L.K.N.9 j.N.f f f                               ",
"                        M B F b.~.&XE.k.u N.K.T.K.~.&X^.N.9 k.H.H.A.c.m M m                         ",
"                  9 B Y A.(.#Xr.c..XH.a.u d.L.oXH.H..XL.d.u y.N.m.Y K H.U.U.C j 9                   ",
"              M C C N.oXI.H.H.B.y.9 y r r r r r r r r r r r r y 9 y.N.H.}.oXm.q.C E K               ",
"            C d.Q.H.k.C x.m.m.n r e ..~ W ~ _ _ ~ _ _ ~ ~ W ~ ..r r n N.N.c.C j.U.#XC.B             ",
"        B S c.E.#XC.b.c.n e e [ _ _ %.$.W %.9.9.9.9.9.9.%.W $.%.@.~ [ e e b b.b.N.H.C.c.y.Y         ",
"      k.N.H.K w.k.v c c ' ~ W &.9.9.9.$.W %.9.9.9.9.9.9.%.W %.9.9.9.&.W ~ ] c c v k.w.U OXA.K       ",
"  F U ~.H.a.a.L 7 2.@.@.9.#.W &.9.9.9.$.W %.9.9.9.9.9.9.%.W $.9.9.9.&.W #.9.@.@.<.7 L d.d.d.d.U F   ",
"9 w.H.Y U U u 7 W 9.9.9.9.#.W %.9.9.9.$.W %.9.9.9.9.9.9.%.W $.9.9.9.&.W #.9.9.9.9.W 7 u U U Y H.w.9 ",
"9 w.H.`.~.H.f 7 W 6.9.9.9.#.W &.9.9.9.$.W %.9.9.9.9.9.9.%.W $.9.9.9.&.W #.9.9.9.6.W 7 f H.H.H.'.k.9 ",
"9 F a..X`.H.f 7 W 6.9.9.9.#.W &.9.9.9.$.W %.9.9.9.9.9.9.%.W $.9.9.9.&.W #.9.9.9.6.W 7 h '.E.H. XN.9 ",
"9 S y.y.w.y.u 7 W 6.9.9.9.#.W %.9.9.9.$.W %.9.9.9.9.9.9.%.W $.9.9.9.%.W #.9.9.9.6.W 7 f L.c.y.y.S u ",
"u w.H.a.a.a.f 7 W 6.9.9.9.#.W %.9.9.9.$.W %.9.9.9.9.9.9.%.W $.9.9.9.&.W #.9.9.9.6.W 7 u a.a.a.a.F 9 ",
"9 w.H..X`.H.f 7 W 6.9.9.9.#.W %.9.9.9.$.W %.9.9.9.9.9.9.%.W $.9.9.9.%.W #.9.9.9.9.W 7 g H.H.H.H.w.9 ",
"9 B Y C.d.Y u 7 W 6.9.9.9.#.W %.9.9.9.$.W %.9.9.9.9.9.9.%.W $.9.9.9.%.W #.9.9.9.6.W 7 f H.H.H.Y B u ",
"u d.^.s.d.d.a 7 W &.9.9.9.#.W &.9.9.9.$.W %.9.9.9.9.9.9.%.W $.9.9.9.&.W #.9.9.9.=.& 0 a Y Y Y d.F 9 ",
"9 h.(.OX`.H.f 7 W 9.9.9.9.#.W &.9.9.9.$.W %.9.9.9.9.9.9.%.W $.9.9.9.&.W $ > > > 2 . 8 s k.k.k.OXN.u ",
"9 w.H.~.Y.H.f 7 W 9.9.9.9.#.W &.9.9.9.$.W %.9.9.9.9.9.9.%.W $.9.9.9.&.W & . . . . . 8 f H.'.+XQ.d.u ",
"9 r.J.C C C u 7 W %.9.9.9.#.W &.9.9.9.$.W %.9.9.9.9.9.9.%.W $.9.9.9.&.W +.4.4.4.<.. 8 u V m.Q.H.w.u ",
"9 l V oX^.N.s 7 W 6.9.9.9.#.W &.9.9.9.$.W %.9.9.9.9.9.9.%.W $.9.9.9.&.W #.9.9.9.=.# 6 s N.q.V C l 9 ",
"9 U N.W.}.#Xl 7 W 9.9.9.9.#.W %.9.9.9.$.W %.9.9.9.9.9.9.%.W $.9.9.9.&.W #.9.9.9.9.W 7 f H.C.m.N.U 9 ",
"9 r.H.H.L.T.g 7 W 6.9.9.9.#.W &.9.9.9.$.W %.9.9.9.9.9.9.%.W $.9.9.9.&.W #.9.9.9.%.W 7 f H.H.H.H.w.9 ",
"9 u f f w.H.f 7 W 6.9.9.9.$.W &.9.9.9.$.W %.9.9.9.9.9.9.%.W $.9.9.9.&.W #.9.9.9.9.W 7 f H.H.H.H.w.9 ",
"9 w.H.&XE.9 9 7 W 6.9.9.9.#.W %.9.9.9.$.W %.9.9.9.9.9.9.%.W $.9.9.9.&.W #.9.9.9.%.W 7 f K.Y 9 9 u u ",
"9 r.H.H.H.H.f 7 W 6.9.9.X . . . < 9.9.$.W %.9.9.9.9.9.9.%.W $.9.9.9.&.W #.9.9.9.9.W 7 u u p.H.H.w.9 ",
"9 q.D.D.D.H.f 7 W 6.9.9.9.} . 4.9.9.9.$.W %.9.9.9.9.9.9.%.W $.9.9.9.&.W #.9.9.9.%.W 7 f H.H.K.%XH.u ",
"9 h m m q.C.f 7 W 9.9.9.>.% . 2.;.9.9.$.W %.9.9.9.9.9.9.%.W $.9.9.9.&.W #.9.9.9.9.W 7 s C.C.C.C.Y u ",
"9 w.H.H.h.C u 7 W 6.;.4.1 + X = 3 4.0.$.W %.9.9.9.9.9.9.%.W $.9.9.9.%.W #.9.9.9.6.W 7 u C C C C l 9 ",
"9 w.H.H.H.H.f 7 W 6.... ,.#.W %.o.. 4.$.W %.9.9.9.9.9.9.%.W $.9.9.9.&.W #.9.9.9.6.W 7 f H.H.H.H.w.9 ",
"9 U N.m.m.N.f 7 W 6.o.- <.' # 2.} : 5.$.W %.9.9.9.9.9.9.%.W $.9.9.9.%.W #.9.9.9.9.W 7 f Q.U.H.m.U 9 ",
"9 x S S A S u 7 W 9.9.9., = + ; 4 9.9.$.W %.9.9.9.9.9.9.%.W $.9.9.9.%.W #.9.9.9.6.W 7 j  XT.c.S x 9 ",
"9 w.J.H.H.H.f 7 W 6.9.9.9.#.W %.9.9.9.$.W %.9.9.9.9.9.9.%.W $.9.9.9.%.W #.9.9.9.9.W 7 u K F K H.w.u ",
"9 l.`.H.H.H.f 7 W 6.9.9.9.#.W %.9.9.9.$.W %.9.9.9.9.9.9.%.W $.9.9.9.%.W #.9.9.9.%.W 7 f H.H.H.`.k.9 ",
"u K.&Xd.s.s.a 7 W 6.9.9.9.#.W %.9.9.9.$.W %.9.9.9.9.9.9.%.W $.9.9.9.%.W #.9.9.9.9.W 7 s a.B.H..XN.9 ",
"9 d.~.Y Y Y u 7 W 6.9.9.9.#.W &.9.9.9.$.W %.9.9.9.9.9.9.%.W $.9.9.9.&.W #.9.9.9.=.@ q u U y.s.a.F u ",
"9 C Y J.H.H.f 7 W &.9.9.9.#.W &.9.9.9.$.W %.9.9.9.9.9.9.%.W $.9.9.9.&.W ` ..{ { 5 . 8 f H.k.Y Y C u ",
"u w.H.J.Q.|.j 7 W 9.9.9.9.#.W &.9.9.9.$.W %.9.9.9.9.9.9.%.W $.9.9.9.&.W & . . . . . 8 f H.H.H.|.c.9 ",
"9 C Y Y T.&Xl 7 W 9.9.9.9.#.W &.9.9.9.$.W %.9.9.9.9.9.9.%.W $.9.9.9.&.W ` { { { 5 . 8 u Y c.L.&XK.u ",
"9 F d.s.c.C.f 7 W %.9.9.9.#.W &.9.9.9.$.W %.9.9.9.9.9.9.%.W $.9.9.9.&.W #.9.9.9.=.@ q f d.w.Y C.Y 9 ",
"u r.H.J.N.s.s 7 W 9.9.9.9.#.W %.9.9.9.$.W %.9.9.9.9.9.9.%.W $.9.9.9.&.W #.9.9.9.9.W 7 f H.m.s.s.F u ",
"9 w.H..X).H.f 7 W 6.9.9.9.#.W %.9.9.9.$.W %.9.9.9.9.9.9.%.W $.9.9.9.&.W #.9.9.9.6.W 7 f H.H.H.H.w.9 ",
"9 M G j.y.G u 7 W 6.9.9.9.#.W %.9.9.9.$.W %.9.9.9.9.9.9.%.W $.9.9.9.%.W #.9.9.9.6.W 7 f H.`.OXG M 9 ",
"9 P b.b.b.b.s 7 W 6.9.9.9.#.W &.9.9.9.$.W %.9.9.9.9.9.9.%.W $.9.9.9.%.W #.9.9.9.6.W 7 u A U y.b.P 9 ",
"9 w.H.H.H.H.f 7 W %.9.9.9.#.W &.9.9.9.$.W %.9.9.9.9.9.9.%.W %.9.9.9.&.W #.9.9.9.%.W 7 f N.m.N.@XA.u ",
"9 l C H.H.H.f 7 W 9.9.9.9.#.W &.9.9.9.$.W %.9.9.9.9.9.9.%.W $.9.9.9.&.W #.9.9.9.9.W 7 f H.].#XE.a.9 ",
"u N.oXC C C u 7 W 9.9.9.9.#.W &.9.9.9.$.W %.9.9.9.9.9.9.%.W $.9.9.9.&.W $.9.9.9.6.W 7 9 C ~.&XH.w.u ",
"9 p.T.Z.C.C.f 7 W Q ~ ~ ~ Q W ~ ~ ~ ~ Q W Q ~ ~ ~ ~ ~ Q ~ W W ~ ~ ~ ~ W W ~ ~ ~ Q W 7 f C.i.F m h 9 ",
"9 H.%XJ.H.H.f 9 t t t t t t t t t t t t t t t t t t t t t t t t t t t t t t t t t t t f H.D.A.$XH.u ",
"9 9 9 9 9 9 9 9 9 9 9 9 9 9 9 9 9 9 9 9 9 9 9 9 9 9 9 9 9 9 9 9 9 9 9 9 9 9 9 9 9 9 u 9 9 u 9 9 9 9 "
};
