/* XPM */
static char *fa3ff567f9ce46a5da34f8ffca5967f6iDJlpu6bNNME8B44[] = {
/* columns rows colors chars-per-pixel */
"50 50 194 2 ",
"   c None",
".  c gray19",
"X  c #313030",
"o  c #43382D",
"O  c #43382E",
"+  c #4D3D2C",
"@  c #7F560B",
"#  c #6D4C1D",
"$  c #7D5515",
"%  c #7B5419",
"&  c #7F571F",
"*  c #5F4524",
"=  c #5C442A",
"-  c #6C4C22",
";  c #684A27",
":  c #684B27",
">  c #694B27",
",  c #634828",
"<  c #704F24",
"1  c #714F24",
"2  c #755223",
"3  c #795421",
"4  c #7A5521",
"5  c #7D5620",
"6  c #77562C",
"7  c #76562D",
"8  c #75562F",
"9  c #77572F",
"0  c #7D592C",
"q  c #6E5438",
"w  c #6C543A",
"e  c #69533D",
"r  c #735532",
"t  c gray31",
"y  c #5F5145",
"u  c #5C5147",
"i  c #5D5147",
"p  c #57504B",
"a  c #5B5148",
"s  c #505050",
"d  c #515151",
"f  c gray32",
"g  c #535353",
"h  c gray33",
"j  c #555555",
"k  c #565656",
"l  c gray34",
"z  c #585858",
"x  c gray35",
"c  c #5A5A5A",
"v  c #5B5B5B",
"b  c gray36",
"n  c #5D5D5D",
"m  c gray37",
"M  c #5F5F5F",
"N  c #605245",
"B  c #606060",
"V  c gray38",
"C  c #626262",
"Z  c gray39",
"A  c #646464",
"S  c #656565",
"D  c gray40",
"F  c #676767",
"G  c #696561",
"H  c #686868",
"J  c DimGray",
"K  c #6A6A6A",
"L  c gray42",
"P  c #6C6C6C",
"I  c #6D6D6D",
"U  c gray43",
"Y  c #717171",
"T  c #727272",
"R  c gray45",
"E  c #747474",
"W  c gray46",
"Q  c #767676",
"!  c #777777",
"~  c gray47",
"^  c #797979",
"/  c gray48",
"(  c #7B7B7B",
")  c #7C7C7C",
"_  c gray49",
"`  c #7E7E7E",
"'  c #855901",
"]  c #875A01",
"[  c #875B01",
"{  c #885B01",
"}  c #895B01",
"|  c #895C01",
" . c #8B5D01",
".. c #8C5D01",
"X. c #8D5E01",
"o. c #8E5F01",
"O. c #8C5E09",
"+. c #835811",
"@. c #825813",
"#. c #845911",
"$. c #855A10",
"%. c #885C11",
"&. c #855B1B",
"*. c #825A1D",
"=. c #855B1C",
"-. c #845A1D",
";. c #8B5F19",
":. c #885D1B",
">. c #906001",
",. c #926201",
"<. c #946301",
"1. c #956401",
"2. c #966401",
"3. c #976501",
"4. c #986601",
"5. c #9C6801",
"6. c #9E6901",
"7. c #9E6A01",
"8. c #9F6B04",
"9. c #946309",
"0. c #98670F",
"q. c #99670F",
"w. c #9D690A",
"e. c #8F6116",
"r. c #956412",
"t. c #A06B01",
"y. c #A16B01",
"u. c #A06B02",
"i. c #A16C01",
"p. c #A36D01",
"a. c #A06B05",
"s. c #865D21",
"d. c #808080",
"f. c #818181",
"g. c #838383",
"h. c #848484",
"j. c gray52",
"k. c gray53",
"l. c #888888",
"z. c #898989",
"x. c gray54",
"c. c #8B8B8B",
"v. c #8D8D8D",
"b. c gray56",
"n. c #909090",
"m. c gray57",
"M. c #929292",
"N. c #939393",
"B. c gray58",
"V. c #959595",
"C. c gray59",
"Z. c #979797",
"A. c #989898",
"S. c gray60",
"D. c #9A9A9A",
"F. c gray61",
"G. c #9D9D9D",
"H. c gray62",
"J. c #9F9F9F",
"K. c #A0A0A0",
"L. c gray63",
"P. c #A2A2A2",
"I. c gray64",
"U. c #A4A4A4",
"Y. c #A5A5A5",
"T. c gray65",
"R. c #A7A7A7",
"E. c gray66",
"W. c #AAAAAA",
"Q. c gray67",
"!. c gray68",
"~. c #AEAEAE",
"^. c gray69",
"/. c #B1B1B1",
"(. c #B2B2B2",
"). c gray70",
"_. c #B4B4B4",
"`. c gray71",
"'. c #B6B6B6",
"]. c #B7B7B7",
"[. c #B9B9B9",
"{. c gray73",
"}. c #BBBBBB",
"|. c #BCBCBC",
" X c gray75",
".X c #C0C0C0",
"XX c gray76",
"oX c gray77",
"OX c #C6C6C6",
"+X c #CACACA",
"@X c gray80",
"#X c #CECECE",
"$X c gray83",
"%X c white",
/* pixels */
"                          C C s L A L A L M j A                                                     ",
"                      L / V.A.c T.T.T.^.!.z.P G.Y P                                                 ",
"                  ) V.m.[.+XA.M T..X!.@X.Xv.P T.T.z.) ) P                                           ",
"            t s `.E.[.T.V.m.! s / G.f.V.z.P M ) / v.T..XE.! t                                       ",
"          Y m.m.m.T.T.z.A t                     s ! G.`.V.f.K.`.t               ' ' ' ' '           ",
"        / ^.@XT.A.P L C                             A L z.K.!.!.A.t       q ' ' [ 6.6.6.>.'         ",
"    L m.v./ V.t t                                       t t ! m.t $XG p 9 ' 2.6.| p.p.p.,.' | ' '   ",
"  L [.^.A.z.t                                                 t t y %.o.' 2.p.6.[ i.p.p.>.2.p.6.' ' ",
"t G.z./ P s                                                     t ' u.p.<.2.p.6.} p.p.p.,.2.p.6.' ' ",
"t A. X`.z.t                                                     t ' u.p.,.2.p.6.} p.p.p.o.4.p.4.' ' ",
"t ! ^.^.z.s                                                     t ' i.p.,.2.i.6.' p.p.p.>.4.p.6.' ' ",
"t m.! L M t                                                     t ' i.p.,.2.i.6.} p.p.p.>.2.p.6.' ' ",
"t A.T.T.z.t                                                     t ' 6.p.,.2.p.6.} p.p.p.>.2.p.4.' ' ",
"t m..X^.f.t                                                     s ' i.i.,.2.p.6.} i.p.p.>.4.p.6.' ' ",
"t V.j.) P t                                                     s # 8.i.,.2.p.6.| p.p.p.>.2.i.6.' ' ",
"t [.oX^.z.s                                                     s . 3 w.,.2.i.6.} p.p.p.>.4.p.6.' ' ",
"s G.[.^.z.t                                                     t . . ; $ 2.p.6.| p.p.p.o.2.p.4.' ' ",
"s G.) A C t                                                     t . e.9.O.2.p.6.} i.p.p.,.4.p.6.' ' ",
"t c .X[.j.t                                                     t +.u.p.,.2.i.6.| p.p.p.o.2.i.5.' ' ",
"t G.T..X!.t                                                     t ' u.p.,.2.i.6.} p.p.p.,.4.p.5.' ' ",
"t z.m.G.z.t                                                     t ' u.p.,.2.p.6.' p.p.p.,.2.p.6.' ' ",
"t ! V.m.! t                                                     t ' u.p.,.2.p.6.| p.p.p.,.2.i.5.' ' ",
"s A.[.T./ t                                                     t ' i.i.,.2.p.6.| p.p.p.>.2.p.5.' ' ",
"s G.T.T.z.t                                                     t ' i.i.,.2.p.6.} i.p.p.>.2.p.6.' ' ",
"s C L v.z.t                                                     t ' u.p.<.2.p.6.| p.p.i.,.4.i.5.' ' ",
"t G.T.j.M s                                                     t ' u.p.,.2.p.6.| p.p.r.+.9.p.5.' ' ",
"t A.E.T.z.t                                                     t ' i.p.,.2.i.6.} i.p.2 O 2 q.6.' ' ",
"t j.v.z./ t                                                     t ' u.p.,.2.p.6.| p.p.i.: = =.5.' ' ",
"t j.z.v.! t                                                     t ' 6.p.,.2.p.6.} p.p.5 + *.i.6.' ' ",
"t G.T.T.z.t                                                     t ' i.i.,.2.p.6.' p.> =.% - -.6.' ' ",
"t oX^.T.z.t                                                     t ' i.i.,.2.p.6.| p.. r.,.* - 5.' ' ",
"s oXz.M c t                                                     t +.i.i.,.2.i.6.| p.p., O =.p.5.' ' ",
"s A A.T.z.s                                                     s . e.a.,.2.i.6.| i.p.p.,.2.p.6.' ' ",
"s G.T.`.G.s                                                     s . . 3 $.2.p.6.| p.p.p.o.4.p.4.' ' ",
"s / f..X^.s                                                     t . 3 *.#.<.p.6.} p.p.p.,.2.p.6.' ' ",
"t j.z.A.j.t                                                     t # 8.i.,.2.p.6.} i.p.p.o.4.i.6.' ' ",
"t G.T.G.f.s                                                     t ' u.p.<.<.p.6.} p.p.p.>.2.p.5.' ' ",
"s A.@X Xz.s                                                     t ' u.p.<.<.p.6.} p.p.p.>.4.p.5.' ' ",
"t A L A M t         c M C M C C A L L A A c s s c j c M M j     t ' u.p.,.2.p.6.' p.p.p.>.2.p.5.' ' ",
"t G.T.T.z.s t t t P ) z.v.V.A.A.T.G.G.T.K.z.P P A L Y z.) L s j t ' u.p.,.<.p.6.| p.p.p.>.4.p.5.' ' ",
"t f.G.T.z.C f.f.f.! ! ! ! ) z.j.j./ z.A.K.K.V.v.Y ! A ! ! L c L p ' i.p.,.2.p.6.} i.p.p.,.2.p.6.' ' ",
"t !.v.) P ! E.[.T.T.m.v.z.v.z.v.z.z.! P / ) / P P P j j M c j A t ' i.i.,.2.p.6.| p.p.p.o.4.p.4.' ' ",
"t T.K.A.f.! T.!.T.E.E.`.`.^. XT.T.T.G.A.A.A.A.A.A.A.A.L t t s s t ' i.i.,.2.p.6.} p.p.p.,.2.p.6.' ' ",
"s +X`.T.v.s M M M M M C C C C M M M M M M M M M M C M s t t t t t ' [ 7.,.2.i.6.} i.p.p.o.4.i.6.' ' ",
"t t t t t t t t t t t t t t t t t t t t t t t t t t t t t t t t t t t 9 $ ,.i.6.} p.p.p.>.2.p.5.' ' ",
"                                                                      t w 8 s.2.} p.p.p.>.4.p.5.' ' ",
"                                                                          p N r 9 2.4.i.>.2.p.5.' ' ",
"                                                                                  e e ;.} 4.p.5.' ' ",
"                                                                    %X                y N 0 o.| ' ' ",
"                                                                                          a a y y a "
};
