/* XPM */
static char *_cec719ec43b4d97fb859edc7e0d79b9jRBe2nJTZ7TbPRnT[] = {
/* columns rows colors chars-per-pixel */
"50 50 66 1 ",
"  c #020201",
". c #030201",
"X c #030301",
"o c #020202",
"O c #030202",
"+ c #030302",
"@ c #030203",
"# c gray1",
"$ c #040201",
"% c #040301",
"& c #050301",
"* c #040202",
"= c #040302",
"- c #050302",
"; c #040203",
": c #040303",
"> c #050303",
", c #060302",
"< c #070302",
"1 c #060203",
"2 c #060303",
"3 c #070303",
"4 c #030402",
"5 c #030403",
"6 c #040402",
"7 c #050402",
"8 c #040403",
"9 c #050403",
"0 c #040503",
"q c #050503",
"w c #060402",
"e c #070402",
"r c #060403",
"t c #070403",
"y c #060503",
"u c #070503",
"i c #040304",
"p c #050304",
"a c #060304",
"s c #070304",
"d c #040404",
"f c #050404",
"g c #040504",
"h c #050504",
"j c #050405",
"k c gray2",
"l c #060404",
"z c #070404",
"x c #060504",
"c c #070504",
"v c #060405",
"b c #070405",
"n c #060505",
"m c #070505",
"M c #060604",
"N c #070604",
"B c #060605",
"V c #070605",
"C c #060506",
"Z c #070506",
"A c #080403",
"S c #080404",
"D c #080504",
"F c #080405",
"G c #090505",
"H c #080604",
/* pixels */
"d#ddd8#8##4###4p##-4--8888#d488d88HN88HNNH8HMddMdd",
"8d#d####8######8d4-d-88-A8-d#ddd888A8HH88888d8dddd",
"#d8####d88######ddpd-d-88A88#88AA8A88H8AHDDd888dd8",
"#d#8###########8d4#--8--88--#--88888A88HddDd88NHM8",
"#8#d########8####888-888pp-8##888d8A8--AdDd8d88dMd",
"88#88#8###########8888-ddA888#88#dd88888dH888ddddH",
"#8dd#8d8###8##8##8---88-8A8A8888---8d-A8d8D8D88dd8",
"dd#888d8###88#8####-8---A88A-4-8d-88Dp8-88dD8888dM",
"dd8####8#-#8----##8-88--8-8A8A8-##---88-888M8888dD",
"#d8##dd#8p-88--#-884A888888A8888#p48-88-888AD8A88A",
"dd#88##d-8p-d-d-48-p88--AA8AA888#d##-8888888888DDd",
"8dd#8d84-88d-d-p----A8888888A8A8-#4#88888888dDdAdH",
"884#-#8-8-dd--8Add-#----A88A88AA8--#888884##8888dd",
"88-####-pddd88----#-#-8-8888AAAAA8---88#88##8888dD",
"88p-8###pd--8------###--8A88ADAA88#-###--###-8-d88",
"88pd8-48--88---8-#------88A8--AD---8##8#48#8#88888",
"---8-#-##p#---8-p--#-#-#--AA-AAAA88-8--##888d888A8",
"dA8Ap-8-pp--88--#p#-#-#---8--AA-A-A---#--#-8-88888",
"8-888-8--#-p8---p----##-#--A-A--A-A8-#---88-88-8A8",
"8-8-888d#-#-#---8--##--#-#-A-A-s8AA8p#-#-88888888H",
"--d-888-d8----#------##-#---8--8AA---8-8-88A88d88H",
"dD8dAdDd88##-888-##-#--#-#-#---88---8A88--888A8p88",
"D8Apd8p-88-##--#-------####--8A-A-88--8--#88888A8D",
"dA88A8p8A888-88--#-#-##-##----8-8-8-8AA8--8-8A-d88",
"A88A88A8-8------#-#--#-########-88---p8-d--8---88A",
"8888D888D88--##--#-##-#--#####-#--8-88AAA8-d8A8888",
"AA8AAdDA-d-p-p#---#-#--########---88AAA88A----8-AH",
"888AAA8DA-ssd--#-#-#-#-#######-#--A-888AAA#----88A",
"-8d-888A-s-----###--##--####-####--8A8DAAA--88AANA",
"-d-88A8DAAA---#---##-###-######---88-A8A--dp-88888",
"dp--A888pspDpp-####-#-############----88--A-888888",
"pd8-88-A-ppAp-#--###-#############---8-8Ddp-8888A8",
"d-p88AdA8A8D--8-##-##-############-#--d8A8A-8-888A",
"dp---AA8A-Ass88-######-######-#####-#-88-88-8A-d88",
"dppps8DAAAAD8AA--##-##-#####-#######8---88--8Ad-AN",
"dpppdd8DDpssDA-p-#-#-######-#######---8-A-88-8d-88",
"8sdd888dDsA8AA88-####################---888ApA8-8A",
"8DD8A8DDsDpp-d8A#-################-##----888DdDd88",
"ddAAd8AddD-A8-88-###############-#####-#8-88A88AAN",
"dA88A8dD-DsDA--A--###############-#--#-#--8A888888",
"dDHDdD8AdpDsA-----###-######-##----#-8#d88A-88A88A",
"Dd8dADAAApA-d8--##########-#####-8###-#d88888A-88H",
"dAdDD8888D-8-8-p-#########-###--#---#48-88-8888A88",
"dDDA8AA88-d8888-#########-##-#--4#8-##8-A88AA8A8H8",
"8DdddA8A8A88--8-############8--8-##----888888-D8dA",
"DdDdAd88A8-8888-###########-8#-48---88-d8-DpDpDdDd",
"DdddDdd-8A-84p8-#############-##8-8-8--8-8pAA8DdDD",
"ddDdDdd88888#-#-############84---888888-8-8dD8Dd8A",
"ZddZdDppdpd##d8###############8--8A--88Ad-p-d8p8A8",
"dDdDDdpddd#ddd8##d#--#8##8--888-888A-88Dp-88DDADdD"
};
