/* XPM */
static char *_c3a2cedce974468c2a8a53516dc0186g3ZKj6ePUkSsP3V0[] = {
/* columns rows colors chars-per-pixel */
"50 50 228 2 ",
"   c None",
".  c #030101",
"X  c #0B0503",
"o  c #0C0B0B",
"O  c #150A06",
"+  c #140C0B",
"@  c #1B0C09",
"#  c #160808",
"$  c #1C120C",
"%  c #151212",
"&  c #1C1515",
"*  c #1A1919",
"=  c #120E15",
"-  c #2C130E",
";  c #26110D",
":  c #2B1512",
">  c #221A1A",
",  c #281814",
"<  c #341612",
"1  c #341A15",
"2  c #3C1A16",
"3  c #3B1E1A",
"4  c #371716",
"5  c #250F0D",
"6  c #3D221C",
"7  c #37251C",
"8  c #2C251B",
"9  c #282625",
"0  c #362827",
"q  c #373131",
"w  c #363839",
"e  c #35302F",
"r  c #320A20",
"t  c #441E19",
"y  c #43221C",
"u  c #48261B",
"i  c #51261E",
"p  c #4C321E",
"a  c #491230",
"s  c #452922",
"d  c #4E2C23",
"f  c #462D2A",
"g  c #532B24",
"h  c #5C2C24",
"j  c #542720",
"k  c #4A3326",
"l  c #56322A",
"z  c #5C342B",
"x  c #56392A",
"c  c #433434",
"v  c #463A37",
"b  c #543C33",
"n  c #622E26",
"m  c #682323",
"M  c #653229",
"N  c #6C3A2C",
"B  c #62382A",
"V  c #643B31",
"C  c #6A3F33",
"Z  c #733B32",
"A  c #743E2C",
"S  c #601616",
"D  c #4F4233",
"F  c #574737",
"G  c #73442E",
"H  c #6E4235",
"J  c #65463E",
"K  c #724335",
"L  c #7A4532",
"P  c #7C4C39",
"I  c #774936",
"U  c #6B422F",
"Y  c #273543",
"T  c #423F41",
"R  c #782352",
"E  c #6F2A4C",
"W  c #753E65",
"Q  c #3F4444",
"!  c #335769",
"~  c #355D70",
"^  c #316272",
"/  c #464749",
"(  c #5A4545",
")  c #4C5154",
"_  c #57585A",
"`  c #585049",
"'  c #604A49",
"]  c #694945",
"[  c #724F46",
"{  c #6E665A",
"}  c #4E5B66",
"|  c #7A4C6D",
" . c #5D6266",
".. c #68686A",
"X. c #676C71",
"o. c #696E73",
"O. c #70767B",
"+. c #862424",
"@. c #8C322E",
"#. c #A63936",
"$. c #824E3C",
"%. c #85533B",
"&. c #8A563C",
"*. c #8E593E",
"=. c #845434",
"-. c #925C3F",
";. c #AA443F",
":. c #A46C3F",
">. c #832658",
",. c #862759",
"<. c #8B3956",
"1. c #942A5F",
"2. c #962B61",
"3. c #953866",
"4. c #8D3462",
"5. c #A9316B",
"6. c #BD3A76",
"7. c #B53472",
"8. c #A5346C",
"9. c #8F5943",
"0. c #855440",
"q. c #915B44",
"w. c #975D49",
"e. c #8C4D53",
"r. c #A45B53",
"t. c #9B6342",
"y. c #98604A",
"u. c #966848",
"i. c #826A57",
"p. c #986A56",
"a. c #8C6E53",
"s. c #A66C42",
"d. c #B37446",
"f. c #B67548",
"g. c #A86953",
"h. c #A57A5B",
"j. c #B87B58",
"k. c #B1694A",
"l. c #99456B",
"z. c #94536C",
"x. c #8E7471",
"c. c #B87A6D",
"v. c #AA6168",
"b. c #AF4278",
"n. c #C37F4C",
"m. c #A9815F",
"M. c #BF8353",
"N. c #B58663",
"B. c #AE8E72",
"V. c #C9844E",
"C. c #C6814F",
"Z. c #CB8853",
"A. c #D58D53",
"S. c #D28F5B",
"D. c #D8945E",
"F. c #C5916D",
"G. c #D99661",
"H. c #D7986C",
"J. c #CA9A77",
"K. c #D19C72",
"L. c #D4937A",
"P. c #C88770",
"I. c #D5A47B",
"U. c #DEAA7E",
"Y. c #DBA27A",
"T. c #E4AE7D",
"R. c #E1A478",
"E. c #337987",
"W. c #767C81",
"Q. c #657285",
"!. c #566D82",
"~. c #A55E81",
"^. c #9F7182",
"/. c #9E6689",
"(. c #C15D8C",
"). c #3C8794",
"_. c #34838F",
"`. c #4D8391",
"'. c #7E848A",
"]. c #8D939A",
"[. c #8C878C",
"{. c #BBA585",
"}. c #959CA4",
"|. c #B297A4",
" X c #9EA5AC",
".X c #99A0A7",
"XX c #A0A6AD",
"oX c #A8ADB5",
"OX c #B4ADB2",
"+X c #A6929E",
"@X c #CF9F81",
"#X c #D6AD85",
"$X c #D7B38D",
"%X c #D7BA94",
"&X c #E5AD82",
"*X c #EAB284",
"=X c #EDBB8E",
"-X c #E9B588",
";X c #EDBD91",
":X c #CDA7BE",
">X c #EEC192",
",X c #EDC49B",
"<X c #E4C79F",
"1X c #F2C69A",
"2X c #F4CA9D",
"3X c #F1C194",
"4X c #F6CEA3",
"5X c #F5D1A7",
"6X c #F7D4A9",
"7X c #F9D6AA",
"8X c #FBD9AD",
"9X c #F8D3A7",
"0X c #EDCFA7",
"qX c #B7BBC3",
"wX c #CEADC2",
"eX c #C4B3C3",
"rX c #BDC1CA",
"tX c #C5C7D1",
"yX c #C7CAD3",
"uX c #CBCAD5",
"iX c #D3C9D8",
"pX c #CED0DA",
"aX c #D6D4DD",
"sX c #C1C3CC",
"dX c #E9DED0",
"fX c #D7D8E3",
"gX c #D8D9E4",
"hX c #D5D7E2",
/* pixels */
"                                                                                                    ",
"                                  . . . . . O X O X O X X . . .                                     ",
"                          . . . . 1 6 g V I =.&.%.&.=.P U z y 7 + . . .                             ",
"                        . @ : 6 s B H I P %.-.-.-.-.-.*.P P K U d s 1 ; X                           ",
"                      . + 6 s U H %.-.*.t.*.-.-.-.-.-.-.q.-.-.*.I C d 6 , . .                       ",
"                  . O 3 d *.*.-.-.-.-.-.t.*.-.-.-.-.-.-.-.-.-.-.-.-.P C d 6 ; . .                   ",
"                  . 5 k z -.-.-.-.-.-.*.*.-.-.-.-.-.-.-.-.-.-.-.-.-.%.%.H l 6 o .                   ",
"                  X , V I -.-.-.-.-.t.*.*.q.-.-.-.-.-.-.-.-.-.-.-.-.-.q.P H d O X                   ",
"              . @ 3 d &.-.-.-.-.-.-.-.-.-.-.-.-.-.-.-.-.-.-.-.-.-.-.-.-.-.-.P y 3 . .               ",
"              . : l U *.-.-.-.-.-.-.-.-.-.-.-.-.-.-.-.-.-.-.-.-.-.-.-.-.-.-.P z f . .               ",
"              . 1 V H 9.-.&.&.t.t.t.t.-.*.-.-.-.-.-.-.-.&.&.t.t.t.t.9.&.*.-.%.C l X .               ",
"              . 1 V H *.&.H H C.A.A.A.t.C I -.-.-.-.-.*.H P C.A.A.Z.u.U =.*.%.C l X .               ",
"              . 1 V H I %.F.F.-X=X>X;X$X#X#XF.K.K.K.I.K.#X$X>X>X>X>XI.F.p.I H U l X .               ",
"              . 1 V K %.u.-X>X9X8X8X8X8X8X5X>X>X=X=X=X1X7X8X8X8X8X8X2X>XN.9.P U l X .               ",
"              O 7 V %.Z.G.6X7X7X8X8X8X8X8X8X8X8X8X8X8X8X8X8X8X8X8X8X8X8XT.A.d.H l O O               ",
"          . =.f.s.H %.V.G.6X5Xx.F F J {.7X8X8X8X8X8X8X8X8X<X{ F F J {.8XT.A.d.H &.d.:.p             ",
"          . s.G.Z.H P V.G.6X5Xa.o ) { {.7X8X8X8X8X8X8X8X8X0Xx. .0 8 B.6XT.A.d.U t.S.M.p .           ",
"          . h.*XK.p G V.G.6X5X{ > OXdXdX8X8X8X8X8X8X8X8X8X8XdXaX..8 {.6XT.A.s.i a.U.J.k             ",
"              k f 7 G C.G.5X5Xp.S Z 0.@X7X8X8X8X8X8X8X8X7X,Xp.[ m n J.7XT.A.d.p s k                 ",
"                O : B s.j.1X;Xg.+.m @.@X7X8X8X8X8X8X8X8X8X,Xr.+.+.@.J.1XI.d.-.y ,                   ",
"                  . 1 N 0.&X&Xk.#.#.;.@X7X8X8X8X8X8X8X8X8X4Xk.#.#.;.P.&Xj.L M                       ",
"                    X @ 3 %.q.H.&X;X1X4X8X8X8X7X8X8X8X8X8X7X,X;X&XH.f.q.g.                          ",
"                    . . + h B N.P.#X=X3X2X2X2X2X4X1X4X1X4X;X;X;XI.F.g.L                             ",
"                    X @ = = * b L f.Z.H.T.&X*X&X&X*X*X&X&X&XS.n.-.U _                               ",
"                  . a ,.<.E._.^ ! [ A $.@.:.A.A.A.A.A.n.&.=.A A ) ! E.).| 3.2.                      ",
"                r a R 5.6.`._.| l.+X|.^.<.e.r.c.R.H.g.r.<.l.|.OX/.| !._./.7.5.1.,.                  ",
"              . a R ,.7.b.`.).z.l.qXpX|.3.3.>.v.&XL.3.,.3.~.iXaX^.3.o.).Q.7.5.>.>.                  ",
"              . a R ,.1.4.} ~ }.XXtXfXfXfX:X6.7.6.6.6.(.iXhXfXaXqXXXQ.! W 1.1.>.>.                  ",
"              . U N.c.<.>.Y Y O.[.tXfXfXhXiXwXwX:XwXwXwXaXfXgXhX.X'.} Y R ,.z.P.P.                  ",
"              . a.T.L.z.<.1 % } o.oXtXtXtXtXpXpXpXpXpXpXtXtXyXeX]. .w o E e.c.*X&X                  ",
"              , p.T.*X*XI.b X w Q  .X.X.o.[.XXXX XXXXX}.O.X.o.X.) Q 9 $ m.*X-X*XU.                  ",
"            N.I.#X2X1X*XY.D o Y /  .o.'.].oXyXyXyXtXyXqX}.].O.X.) Q > $ m.*X;X2X1X-X#X              ",
"            J.=X>X7X4X-XY.D X D ` X.W.]. XqXgXgXgXgXgXaXoX.X'.O._ ) 9 % m.*X>X7X4X>XI.F             ",
"            $X8X8X8X9X-XY.D o  .o.}. XXXXXqXgXaXgXgXaXpXOXXXXX XW.X.w % m.T.3X8X8X7X%XD             ",
"            %X8X8X8X2XG.Z.p . 0 f Y / / ) ..[.[.|.OX[.x._ ) / T c f & O t.D.T.7X8X8X%XD X           ",
"            $X2X4X7X,XM.s.u . : < 4 4 s f J e.x.{.x.i.[ v f 3 4 < < # O =.d.K.9X9X2X$XD .           ",
"            U.-X;X8X%X%.N ; . < 4 j n n n L y.w.q.w.w.9.N n n n t < @ . i A h.0X2X*XK.D .           ",
"              h.N.a.i.b - . O I $.l t j n h d g j j d g n h t t K %.s . @ - 7 v F F F               ",
"                  . . X . . O I $.n u M K N u 2 5 - t j Z Z g i K $.u . . . X X X . X               ",
"                          . X h M n M $.w.0.n t X @ h N q.9.C n n M 1 . . %                         ",
"                          . O %.9.Z M $.w.%.n t X @ h N 9.9.C M %.9.d . .                           ",
"                          . O 0.q.N j Z $.K i 2 X @ t h P $.h j %.y.d . .                           ",
"                          . O 0.9.z r i n j < 5 . X < t h n 2 t P y.k . .                           ",
"                      > & . . 4 t 4 < i n n n t X @ j n n h t < 4 3 @ . = > >                       ",
"                    > > * . . ; 5 1 0 s g d t : X # 2 y f f 0 7 , - + . + * > >                     ",
"                  > > > & . . + & 0 q q q 9 % + . . + & 0 q q q > % X . + > > > >                   ",
"                  > > > * . . 9 e T ' ' ( v @ o . X + > ( ' ' ( c 9 = . + > > > >                   ",
"                    > > > % % > 0 q c c c 0 & & % % > > c c v c 0 9 & % & > > >                     ",
"                      > > > > > > > > > > > > > > > > > > > > > * > > > > > >                       ",
"                                                                                                    "
};
