/* XPM */
static char *_e16eb7b23294631d494382ff9a1d0164JXBoyeDQblKj8v6[] = {
/* columns rows colors chars-per-pixel */
"50 50 241 2 ",
"   c None",
".  c #0B0604",
"X  c #170A07",
"o  c #1B1209",
"O  c #1A1211",
"+  c #2C1B04",
"@  c #27160A",
"#  c #351D09",
"$  c #251D1C",
"%  c #271812",
"&  c #341A14",
"*  c #3B1C15",
"=  c #361E1A",
"-  c #210D09",
";  c #3C230C",
":  c #382406",
">  c #3C2314",
",  c #382716",
"<  c #2E2213",
"1  c #2D2727",
"2  c #322A2A",
"3  c #3B2C26",
"4  c #39322C",
"5  c #363333",
"6  c #393534",
"7  c #3D3A3A",
"8  c #442D03",
"9  c #452B08",
"0  c #4C3304",
"q  c #4A350B",
"w  c #573A08",
"e  c #43221A",
"r  c #4B231C",
"t  c #482B16",
"y  c #512B1B",
"u  c #43331C",
"i  c #483313",
"p  c #54321C",
"a  c #563915",
"s  c #66351A",
"d  c #643E09",
"f  c #462C23",
"g  c #552A22",
"h  c #5A2D24",
"j  c #542720",
"k  c #4B3B2D",
"l  c #473627",
"z  c #5A3523",
"x  c #573725",
"c  c #423D3C",
"v  c #473C33",
"b  c #533E32",
"n  c #643529",
"m  c #6B3B2D",
"M  c #643B28",
"N  c #763835",
"B  c #68342B",
"V  c #441E19",
"C  c #5D4112",
"Z  c #6D4A04",
"A  c #6C4B0C",
"S  c #654507",
"D  c #724D0A",
"F  c #744E04",
"G  c #7C5405",
"H  c #75510A",
"J  c #7B540B",
"K  c #7F590D",
"L  c #684914",
"P  c #754E17",
"I  c #795417",
"U  c #6F501A",
"Y  c #5A4329",
"T  c #4B453A",
"R  c #5D4B3A",
"E  c #564534",
"W  c #524734",
"Q  c #6C422C",
"!  c #694426",
"~  c #72462F",
"^  c #7A4C28",
"/  c #7B5327",
"(  c #624E3A",
")  c #6C4432",
"_  c #734434",
"`  c #7B4C34",
"'  c #794936",
"]  c #65513C",
"[  c #6D5438",
"{  c #775539",
"}  c #783749",
"|  c #324B51",
" . c #464545",
".. c #494643",
"X. c #4E4E4E",
"o. c #4B4947",
"O. c #544D46",
"+. c #5D5147",
"@. c #5B564A",
"#. c #535353",
"$. c #5C5C5B",
"%. c #5B5852",
"&. c #655646",
"*. c #775842",
"=. c #685A57",
"-. c #734C4A",
";. c #68625A",
":. c #74664D",
">. c #516B6E",
",. c #646464",
"<. c #6A6A6A",
"1. c #676A66",
"2. c #737373",
"3. c #7B7B7B",
"4. c #7B7976",
"5. c #6F706D",
"6. c #755A61",
"7. c #89302A",
"8. c #845B0B",
"9. c #8A5E0B",
"0. c #865A04",
"q. c #8A5617",
"w. c #8D6008",
"e. c #8D6007",
"r. c #946405",
"t. c #93631D",
"y. c #875928",
"u. c #874A39",
"i. c #85533A",
"p. c #8A563C",
"a. c #8D593D",
"s. c #855636",
"d. c #925C3F",
"f. c #944936",
"g. c #8A6437",
"h. c #976637",
"j. c #8F6425",
"k. c #A8723B",
"l. c #873554",
"z. c #95375B",
"x. c #90334F",
"c. c #9A3763",
"v. c #A73667",
"b. c #A13A53",
"n. c #8B5843",
"m. c #935254",
"M. c #A95954",
"N. c #886547",
"B. c #996844",
"V. c #996B56",
"C. c #977556",
"Z. c #8E6F50",
"A. c #A66B45",
"S. c #AA7947",
"D. c #B67A49",
"F. c #A57151",
"G. c #A97957",
"H. c #B77556",
"J. c #B06753",
"K. c #8F516A",
"L. c #B15076",
"P. c #92756E",
"I. c #AE6E63",
"U. c #C56A7E",
"Y. c #C17B56",
"T. c #B98858",
"R. c #B88C52",
"E. c #888379",
"W. c #B08867",
"Q. c #BEA27A",
"!. c #C78957",
"~. c #C98C59",
"^. c #C58B66",
"/. c #CC956A",
"(. c #D59765",
"). c #D79E74",
"_. c #CB9A79",
"`. c #C2A37A",
"'. c #D8A677",
"]. c #D5A871",
"[. c #E1A575",
"{. c #7C7E81",
"}. c #A66782",
"|. c #7F8186",
" X c #838383",
".X c #8B8B8B",
"XX c #85868A",
"oX c #949494",
"OX c #9B9B9B",
"+X c #92979B",
"@X c #908C8F",
"#X c #AC918B",
"$X c #B6A58E",
"%X c #9B9DA3",
"&X c #B393A5",
"*X c #A5A5A5",
"=X c #A4A3A3",
"-X c #ABABAB",
";X c #A3A6AC",
":X c #AFB3BA",
">X c #B3B3B3",
",X c #BDBDBD",
"<X c #B3B4BC",
"1X c #B6ADB7",
"2X c #9BA0A6",
"3X c #CAAC85",
"4X c #DAAA84",
"5X c #D9B68A",
"6X c #DCBB93",
"7X c #D1AF92",
"8X c #E3AE81",
"9X c #E4B483",
"0X c #EABB8B",
"qX c #E5B988",
"wX c #E8BD94",
"eX c #C99AB3",
"rX c #C7B1B6",
"tX c #EAC28C",
"yX c #E6C08E",
"uX c #EDC394",
"iX c #E7C396",
"pX c #F3CA9D",
"aX c #F1C397",
"sX c #F9D5A9",
"dX c #FBD9AD",
"fX c #F6D3A7",
"gX c #EFCEA5",
"hX c #DBC4AA",
"jX c #BCBBC3",
"kX c #C7B9C7",
"lX c #BEC0C9",
"zX c #C4C4C4",
"xX c #C2C1CB",
"cX c #CCCCCC",
"vX c #C8C3CE",
"bX c #C9C9D3",
"nX c #D2CBD8",
"mX c #DCDCDC",
"MX c #D2D2D5",
"NX c #CED0DA",
"BX c #D6D7E1",
/* pixels */
"                                    X.X.X.X.X.X.X.X.X.X.X.X.X.X.                                    ",
"                              %.$.$.OXoXX.OX*X*X*X-X-X-XOXX.oXOX%.%.$.                              ",
"                        ,.1.2.oX>XmX>XoXX.OX*X>X-X>XmX>XOXX.oX*X*X=XOX,.,.,.                        ",
"                  X.1.3.=X<XMX XoXcX*XXXX..X-XcX*X*XcX-X.XX. XOXoX3.2.*X-X-X1.$.X.                  ",
"              ,.1.1.OXcX-X*X=X%X.XX.O.+.+.+.+.+.+.+.+.+.+.+.+.@.X. XOX*XzXbX%XP.<.3.2.              ",
"            1..X>X=X.X1.oXoX+X=.O.v i 8 8 8 8 8 8 8 8 8 8 8 w U O.+.;.oX+XoX1..X-XMXOX1.            ",
"        <.<.oX>XMXOXoXoX=.W v L S 9 # # > t p p a p p t > % : S S Z L R O.=.oX+XoX*XOX+X X3.        ",
"      @XOX*X2.3.oX&.&.R P w + ; 9 t z M Q ` p.p.p.p.s.~ m x y 9 ; : 8 S H w.] ] =.@XE.4.cX*X2.      ",
"  2.3.>X=X.X.X4.] 9.0.Z 0 8 > y z ~ u.i.u.p.d.d.d.d.a.a.s.s.' M g e ; : w 0.0.r.w.] 4..X.X.X.X3.2.  ",
"X. X*X3.4.3.#.] 0.0.d 0 t z ~ ` s.s.a.d.d.d.d.d.d.d.d.d.n.d.a.s.' M p , : 0 Z r.r.0.] X.3.3.3.=X XX.",
"X. X=X,X>X=X#.( G F : # p ~ a.d.d.d.d.d.d.d.d.d.d.d.d.d.d.d.d.d.p.i.~ z t # 8 0.r.G ] #.=X=X=XkXoXX.",
"X.5..XzX>X=X#.( Z S 8 t ! ` a.d.d.d.d.d.d.d.d.d.d.d.d.d.d.d.d.d.a.p.i.Q z 9 9 F e.G ] %.,X-X=XcXOXX.",
"X.<. X X3. XX.W 8 8 t M s.p.d.d.d.d.d.d.h.n.d.d.d.d.d.d.d.d.d.d.d.d.d.p.' p t 8 S Z ] X.*XoX X X<.X.",
"X. X=X X X XX.k + * s ~ p.d.d.d.d.d.d.d.n.n.d.B.d.d.d.d.d.d.d.d.d.d.d.d.s.M p : 8 Z ] X. X X X.X5.#.",
"#. X%XzX>XOXX.k # t M ` p.a.p.d.A.A.A.h.s.p.d.d.d.d.d.p.a.A.A.A.B.a.a.a.s.Q M ; 0 A ( #.OXOXOX-X XX.",
"X.<.4.oXXX2.X.k : 9 ! ^ s.a.N.H.~.(.(.W.C.F.F.F.F.F.V.V.G.^.(.(.~.V.n.a.` _ a : 0 S ( X.OXOX=X4.1.X.",
"X..X>X X X{.X.k # w M ~ { F._.'.0X0XuXwX6X4X4X4X[.4X4X4XwXwXaXaXyX].T.n.` ) M 9 0 l T X.2.2.4.@X2.X.",
"X..X>XzX>XoXX.k 8 a ! s.A./.qXtXpXpXfXfXfXfXwXpXpXwXpXfXsXsXfXfXgXiX'.T.h._ x , , 1 c X. XXXXXcX%XX.",
"X. XOX-XOX.XT ) y.y.^ d.!.[.0X5X`.`.`.6XsXdXdXdXdXdXdXdXpX3X$X`.].iX[.(.D.' ) ` Y 2 6 X.oX>XzX>X.XX.",
"X. XOX,.,.#.4 { D.D.y.h.!.[.tX`.*.&.:.$XgXdXdXdXdXdXdXdXiXE.:.Y C.5XtX(.D.s.B.D.k.4 2  .,..X-X=X XX.",
"X.$.,.,X=X4.4 *.R.!.s.s.!.].uX`.[ E.-XhXsXdXdXdXdXdXdXdXfXrX$X&.Z.5XqX(.k.y.B.~.S.C l X.XX4.1.1.$.X.",
"X.3.oX*X>X>X .( y.j.! y.!.'.uX`.` :.I.7XfXdXdXdXdXdXdXdXhX$XP._ V.5XqX(.k./ y.h.j.S W X.oX+X.XOX3.X.",
"X. XOXOXOXOXX.W w w w / A.(.0X_.f.7.f.3XgXdXdXdXdXdXdXdXiXJ.7.7.J.4X4XH.h.q.d D H Z R X.OXoXOX*X XX.",
"X.#.#.#.2.oXX.R S S w s ^ F.].^.J.J.H.8XfXdXdXdXdXdXdXdXgX^.J.J.H.).~.a.q.D Z H 8.H R X.OXOXOX-X XX.",
"X. XOXMX=Xo.o.R A D S w w ~ d.H./.4XwXpXsXsXsXsXsXsXsXsXpXwX0X).~.A.h.y.J H H 8.8.H ( X.OX3.X.X.X.X.",
"X. XOXOXOXoXX.W L J A w % = f -.G.^.'.qX0XaXwXwXaXwXaX0X0X9X).!.S.j.j.I I K 8.8.w.H ( X.X. XOX*X X#.",
"X.{.OXOXoXoXX.R A A d h N ( | @.-.B.H.T.^.).[.[.[.[.).^.~.Y.A.n.:.:.:.' f.q.0.8.8.H ( X.OXOXOXmX*XX.",
"X.$.$.$.2..XX.W w d B 7.z.K.>.>.6.P.P.V.m.M.Y.~.(.!.H.M.m.P.E.6.:.1.5.z.b.f.q.8.8.H ( X.oXoXOXOX{.X.",
"X. XOXOX X$.o.W 0 s N x.c.}.{.<.K.&XjX}.K.c.M.U.(.U.m.K.}.rX1X}.6.5.4.L.b.x.f.q.8.H R X.;.,.,.1.$.X.",
"X. XOXOXoX@Xo.k 9 s } l.c.} >.2.@XjXNXNXkX&X}.U.U.U.}.&XzXNXbX;X.X1.6.c.c.l.f.q.0.A R X.OXOX%X=X XX.",
"X.3.@X.X.X Xo.v 0 / V.M.l.}  .,.|.jXBXBXBXkXeXeXeXeXeXnXBXBXbX%X4.@.-.l.m.I.D.t.G D R X.=XOXOXOX3.X.",
"X.$.<.1.,.$.o.k w g.^._.K.-.5  .<.%XjXjXvXkXvXnXkXkXbXxXkXjX:XE.;.Y ) M.I.[.~.t.J A R #.>X=X.X<.,.X.",
"X. XOXOX+X.XX.( y.S.].[.'.T.x 4 O.1.3.|..X2X:X:X:X:X:X+X|.|.2.%.T C g.`.[.qX(.k.t.H W o.<.5.5.*XE.X.",
"#.oX>XOXoXXXT :.R.].qXqX9XT.C W T ;.5.|.+X:XbXbXNXbXlX;X.X{.1.#.W u N.].0XuX0X].R.I W o.oX+XOX,XoXX.",
"X.-XcX X|.2. .Z.].qXtXtX4XT.Y T %.5.XX+X;XlXBXBXBXBXNX:X2X.X{.,.@.u g.'.tXaXtXqXR.U Y  .3..XOXcXOXX.",
"X.@X-X2.2.<. .C.].yXtXtX'.R.a W &.5.E.XX.X;XjXxXvXlX:X%XXXXX3.,.R 3 g./.qXuXuXqXR.R 4  .5.3. X.X2.X.",
"X.<.3.OXOX.XO.C.].tXyX5X~.k.i > u l v c O.6.P.#X#X.X2.=...v v f , < / D.'.0XyX5XW.7 2  .oXXX4.3.1.X.",
"X.|.OXOX*X-XX.C.].tX]./.F.^ 9 # e r j h z &.m.V.V.V.m.) h h j V * + a s.G.$X3X4XW.v 2 X.oXoX=XzX+XX.",
"X.<.4.3.*XzX%.N.R.R.R.R./ y # p Q n j h n n N _ m _ m n n j h m M ; # y [ Z.C.C.{ 4 5  .2..XOXmX-XX.",
"X.2. XXX.XoXX.( U K I U w : + M ` m g n N n r * = V g m m g h _ ) e @ + 9 w C L S C W X.{.3.4.=X{.X.",
"X. X=X=XoX XX.R Z G H H S 8 + p m B n ' n.u.h & - V n u.n.m n m Y : + : C A D H J D R #.OXoX X.X5.X.",
"X. X=XzX>XOX#.( H e.w.K U 0 + ! u.' m ' n.' h & X f n i.n.m m u.{ , : : A J K K w.H R #.OX2X=X*X|.X.",
"X.,.2..X X2.X.( G e.w.K H 0 o ! a.' h m N m r & X * h N N h n i.{ t + C L K K w.w.G ] #.2X>XcX2.1.X.",
"X.4.oXoXoXoX#.] G e.w.K A 8 o p ' M e r h h V - X * r h h V f _ Q * + : L J w.e.w.H ] X.1.3.E.oX4.X.",
"X. X*X=X=X=X#.( H e.G A a < . + > > > y h j r % X V j h h e V , & X @ , C A K e.r.G ] #.oX+XOXMX=XX.",
"X.$.1.=X=X=X#.] G w.S a i @ . X < , l x l f = X . - = f l l f & o . o < , C A e.r.G ] #.=X,XMX>X.XX.",
"X.OXcX<.1.1.X.] G G C q , < . % u Y ) ) b f O . . X $ k E E Q u < X o < , i C e.r.G ] X.1.>XmX*X|.X.",
"X..X-XOXOXOX#.] G H C q , < o < , Y Y b b 3 O O O O $ l b E k l , % @ < , q S H K G ] #.OX X5.;.%.X.",
"X.*XmX*X=X=X#.X.X.....c 2 1 1 1 1 2 2 2 2 1 $ $ $ $ $ 1 2 2 2 2 1 1 1 1 5 c ..o.o.X.X.%.=X=X=XMX*XX.",
"X.X.X.#.X.X.X.X.X.X.X. . .c c 7 7 6 6 6 6 6 5 2 5 5 5 5 5 5 6 5 7 7 7 c  . .o.X.X.X.X.X.X.X.X.X.#.X."
};
