/* XPM */
static char *d894d4b97403445dc30fc1daeb380e11afaWEZSZKm8JUgn0[] = {
/* columns rows colors chars-per-pixel */
"50 50 27 1 ",
"  c #202020",
". c #222222",
"X c gray15",
"o c #282828",
"O c gray18",
"+ c gray20",
"@ c gray21",
"# c gray23",
"$ c #3C3C3C",
"% c #434343",
"& c gray27",
"* c #4B4B4B",
"= c #4C4C4C",
"- c #505050",
"; c #565656",
": c gray35",
"> c #5D5D5D",
", c #626262",
"< c #656565",
"1 c DimGray",
"2 c #6C6C6C",
"3 c #717171",
"4 c gray46",
"5 c #797979",
"6 c gray50",
"7 c #808080",
"8 c #848484",
/* pixels */
"11:==-,1222223565554:%#OoO++@@+ooooo@%$#%:3553321>",
"22:-;,133344445566662,;*@O+@@++OOoO+$&%@$;2575654<",
"11>:,134444444454557764>#O++++OOOO@%**$@@*>3566752",
":>>,2444444444454557786,$+++OOO++@%==&#+@%-><1344<",
"*;,13444444444556556785,$O@###$*--:>:&@O@$*=;;>,,;",
"*>245545455556776556651;$@%***;<22231;$+@$%&==**&$",
"*>46676676676674<>,>>>;*$&=;-->354443<-$+@#%&%$#+o",
"%:3444444444444<*%%%$&=-;>,,:;>5654442,$OO@@###@OX",
"+&;>:>>>>>>>>>:=$+#$&-<22354,;>3555543<*@O+OO+#$+X",
"o@%&&*=--=*&&&&%$#&:>1245675,--,3565442>*@OOO@*-#X",
"X+@##$&*&%####$&==:133446764,=**,4776532:*&**=><-$",
"@@+++####@@$&&&;<1244556762,;*%$=<576554311111321;",
";-$OO+++O+%:<<><3445567772>=&%##*;<47765444444442,",
"11-#OOO@$%=36544444466653>*%$##$&=;<5665554444443,",
"34<*@O@*>::377644446761,:*$#+O+@#$&=,466665544453<",
"44<*+@*>1,;,4765544674,-=%@@OOO+@@#%=><35766666641",
"11:%@*>12,-=,477556763:*&$+OO##@O+@#$%&;<45556554<",
"*=&$*,2442,=*>4777763>&%$@+O$-:&#####@+#*-::>,,,:=",
"+@$=:244432>*&,25653,=$##+O#-<1>;;;;=%+O+@##$&**%@",
"#&=,24444442>=*:131>-&#@@+#=<33322221;&&&&@+@$&-=%",
":<13444444442<*&=;;=*$@++%;<33444444311<2<*@@*,23,",
"14655444444453,=$%*&$@OO#-<344444444443454=#$=,352",
"156776555445663>&###@++@&<3444444444544674-@#*;<21",
">2577766665775<-$@++@@%*:24444444454466663-##*=:,:",
"=>145667777762-$@++#$&=;<4654444445667542,*@@%=-=*",
"*-:><23566653>%@+O@&*=;,357765545577753;=*$+@%*==$",
"&=--;>,<1<<,:*$#OO+$*=->,2677766777631>&$#@@%;;*%@",
"$&===--===*-;-*$#+O@%*==;:1455455452>-*$$$*=:12:%+",
"+@$%%$%$%#*,11>-=&#+@$%*=-;:>,>,,>>:-&%$%=,13663;#",
"oO@@@@#@@@&<4311<>=#@@$%*&&*-------=&$%*;,3446761:",
"$%$$%&****;1343333<-*%####$%**==***%#$=><334456761",
";;-=-,11222344444442<:%+O+@#$%$%%$##%=>23444444562",
";:;;>2444444444446652>*@Oo++++@####&;,134444444552",
"*=;;<244444444456764<;&#+OOO+OO@@@$=12344444444663",
"&-;,244454544546775<;*%#+##@OOOO+O#-24444444446662",
"&=:<44445664556675<-&&#@$=:=#OO+O+@-2444444444663,",
"*=;13456766566655<-$###%-<2<-&&&%%$*<35555444665<=",
"&*;145577425662<>=%#++%;134311<<<>*&;25666545775>&",
"#%=<35664<,142>-*%#@+$;<3444443432,=*>1257666763:&",
"o+%:1454<:;:::-*%#@+%-<334444444442<;==;1565662,=%",
"XO#&;12,;==-=&=&#@@%;<344444444444441;%$=><<1<>;=%",
"o$&&&;:-==**&%%%#@$-13444444444444455>%##%=-;=**&#",
"$->:*%$$$%$$##@++$;<34444444444444465,&###$&&%$$#+",
":<33,%++@@#+++++%;<344455444544445675>$@+@@@@@+#@O",
",2564*OOO+++O@&=>24565655556555566662;$@%%@+++$**$",
"<3564=@+O+@#$*>135665656666677666662:$@$=;*$$&:<<:",
"<4674:%$@$*;>>:>,122222222137777531>&@#&=;>>>>132,",
"16786>=*&=>22<=$&=---;-;;-:,35441:-*#+#&&-2333343,",
"14653:***;,12,%OO++@#$$%$$&=::;-*$$#OO@%$=1422221:",
";<<<>*$#%*;;:-@. . .XXOoOO@$$$#@OOoX..o@+%:>::::-*"
};
